# xmcd CD database file
#
# Track frame offsets:
#	150
#	15052
#	28745
#	43382
#	57130
#	70050
#	76835
#	83007
#	88670
#	92615
#	95945
#	100337
#	106690
#
# Disc length: 1681 seconds
#
# Revision: 1
# Processed by: cddbd v1.5.1PL0 Copyright (c) Steve Scherf et al.
# Submitted via: CDex 1.51
#
DISCID=93068f0d
DTITLE=Leadbelly - The Bourgeois Blues
DYEAR=1900
DGENRE=Blues
TTITLE0=The Bourgeois Blues
TTITLE1=Looky, Looky Yonder//Black Betty//Yellow Woman's Doorbells
TTITLE2=Poor Howard Green Corn
TTITLE3=The Gallis Pole
TTITLE4=De Kalb Woman
TTITLE5=Noted Rider
TTITLE6=Big Fat Woman
TTITLE7=Burrow Love and Go
TTITLE8=Bring Me Li'l Water Silvy
TTITLE9=Julie Ann Johnson
TTITLE10=Line 'em
TTITLE11=Whoe Back Buck
TTITLE12=John Hardy
EXTD=Published by:\nCollectable Recores Corp.\nBox 35\nNarberth PA 19072
EXTT0=
EXTT1=
EXTT2=
EXTT3=
EXTT4=
EXTT5=
EXTT6=
EXTT7=
EXTT8=
EXTT9=
EXTT10=
EXTT11=
EXTT12=
PLAYORDER=
